<!-- Generator: Adobe Illustrator 23.0.1, SVG Export Plug-In  -->
<svg version="1.1" xmlns="http://www.w3.org/2000/svg" xmlns:xlink="http://www.w3.org/1999/xlink" x="0px" y="0px"
	 width="1057.3px" height="1210.2px" viewBox="0 0 1057.3 1210.2" style="enable-background:new 0 0 1057.3 1210.2;"
	 xml:space="preserve">
<style type="text/css">
	.st0{fill:#504E4D;}
	.st1{fill:#797979;}
	.st2{fill:#9FA0A0;}
	.st3{fill:#C2C3C4;}
	.st4{fill:#E3E3E3;}
	.st5{fill:#FFFFFF;}
</style>
<defs>
</defs>
<g>
	<g>
		<path d="M348.9,494.5V344h44.6v-7.5h-97.2v7.5h44.6v150.5H348.9z M310.5,366.1h-38.3v-54.5h145.2v54.5h-38.3v153.3h-68.6V366.1z"
			/>
		<path d="M529,454.9l-14-36.5l-14,36.5H529z M490,311.6h49.9l78.8,207.8h-65.4l-6.9-18.7h-62.9l-6.9,18.7h-65.4L490,311.6z
			 M457.6,494.5l5.9-15.6h102.8l5.9,15.6h8.7l-60.1-158H509l-60.1,158H457.6z M515,344l48.6,127.4h-97.2L515,344z"/>
		<path d="M689.8,413.8h2.8c8.7,0,15-2,18.9-6.1c3.8-4.1,5.8-9.7,5.8-17c0-7.3-1.9-12.9-5.8-17c-3.8-4.1-10.1-6.1-18.9-6.1h-2.8
			V413.8z M785.1,390.7c0,14.3-2.5,26.5-7.5,36.6c-5,10.1-11.8,18.2-20.4,24.5c-8.6,6.2-18.7,10.8-30.2,13.7
			c-11.5,2.9-23.9,4.4-37.2,4.4v49.5h-66.4V311.6h66.4c13.3,0,25.7,1.5,37.2,4.4c11.5,2.9,21.6,7.5,30.2,13.7
			c8.6,6.2,15.4,14.4,20.4,24.5C782.6,364.2,785.1,376.4,785.1,390.7z M754.9,390.7c0-9.3-1.6-17.5-4.8-24.3
			c-3.2-6.9-7.7-12.5-13.6-16.8c-5.8-4.4-12.7-7.6-20.7-9.8c-8-2.2-16.7-3.3-26-3.3h-35.2v158h8.1V445h27.1c9.3,0,18-1.1,26-3.3
			c8-2.2,14.9-5.5,20.7-9.8c5.8-4.4,10.3-10,13.6-16.8C753.3,408.2,754.9,400.1,754.9,390.7z M746.2,390.7c0,8.9-1.6,16.4-4.7,22.4
			c-3.1,6-7.3,10.8-12.5,14.3c-5.2,3.5-11.2,6.1-17.9,7.6c-6.8,1.6-13.9,2.3-21.3,2.3h-27.1V344h27.1c7.5,0,14.6,0.8,21.3,2.3
			c6.7,1.6,12.7,4.1,17.9,7.6c5.2,3.5,9.3,8.3,12.5,14.3C744.6,374.3,746.2,381.8,746.2,390.7z"/>
		<path d="M419.8,868.4V717.9h44.6v-7.5h-97.2v7.5h44.6v150.5H419.8z M381.4,740h-38.3v-54.5h145.2V740H450v153.3h-68.6V740z"/>
		<path d="M560,789.6c0,6,1.1,11.7,3.4,17c2.3,5.3,5.4,9.9,9.3,13.9c3.9,3.9,8.6,7.1,13.9,9.3c5.3,2.3,11,3.4,17,3.4
			c6,0,11.7-1.1,17-3.4c5.3-2.3,9.9-5.4,13.9-9.3c3.9-3.9,7.1-8.6,9.3-13.9c2.3-5.3,3.4-11,3.4-17c0-6-1.1-11.7-3.4-17
			c-2.3-5.3-5.4-9.9-9.3-13.9c-3.9-3.9-8.6-7.1-13.9-9.3c-5.3-2.3-11-3.4-17-3.4c-6,0-11.7,1.1-17,3.4c-5.3,2.3-9.9,5.4-13.9,9.3
			c-3.9,3.9-7.1,8.6-9.3,13.9C561.1,777.9,560,783.6,560,789.6z M494.5,789.6c0-15,2.9-29.1,8.6-42.4c5.7-13.3,13.5-24.9,23.4-34.7
			c9.9-9.9,21.4-17.7,34.7-23.4c13.3-5.7,27.4-8.6,42.4-8.6c15,0,29.1,2.9,42.4,8.6c13.3,5.7,24.9,13.5,34.7,23.4
			c9.9,9.9,17.7,21.5,23.4,34.7c5.7,13.3,8.6,27.4,8.6,42.4c0,15-2.9,29.1-8.6,42.4c-5.7,13.3-13.5,24.9-23.4,34.7
			c-9.9,9.9-21.5,17.7-34.7,23.4c-13.3,5.7-27.4,8.6-42.4,8.6c-15,0-29.1-2.9-42.4-8.6c-13.3-5.7-24.9-13.5-34.7-23.4
			c-9.9-9.9-17.7-21.4-23.4-34.7C497.4,818.7,494.5,804.5,494.5,789.6z M523.8,789.6c0,11,2.1,21.3,6.2,31
			c4.2,9.7,9.9,18.1,17.1,25.4c7.3,7.3,15.7,13,25.4,17.1c9.7,4.2,20,6.2,31,6.2c11,0,21.3-2.1,31-6.2c9.7-4.2,18.1-9.9,25.4-17.1
			c7.3-7.3,13-15.7,17.1-25.4c4.2-9.7,6.2-20,6.2-31c0-11-2.1-21.3-6.2-31c-4.2-9.7-9.9-18.1-17.1-25.4c-7.3-7.3-15.7-13-25.4-17.1
			c-9.7-4.2-20-6.2-31-6.2c-11,0-21.3,2.1-31,6.2c-9.7,4.2-18.1,9.9-25.4,17.1c-7.3,7.3-13,15.7-17.1,25.4
			C525.9,768.2,523.8,778.6,523.8,789.6z M603.6,861.3c-10,0-19.3-1.9-27.9-5.6c-8.6-3.7-16.2-8.9-22.7-15.4
			c-6.5-6.5-11.7-14.1-15.4-22.7c-3.7-8.6-5.6-17.9-5.6-27.9c0-10,1.9-19.3,5.6-27.9c3.7-8.6,8.9-16.2,15.4-22.7
			c6.5-6.5,14.1-11.7,22.7-15.4c8.6-3.7,17.9-5.6,27.9-5.6c10,0,19.3,1.9,27.9,5.6c8.6,3.7,16.2,8.9,22.7,15.4
			c6.5,6.5,11.7,14.1,15.4,22.7c3.7,8.6,5.6,17.9,5.6,27.9c0,10-1.9,19.3-5.6,27.9c-3.7,8.6-8.9,16.2-15.4,22.7
			c-6.5,6.5-14.1,11.7-22.7,15.4C622.9,859.4,613.6,861.3,603.6,861.3z"/>
	</g>
	<g>
		<path class="st0" d="M317.1,474.9V297.8h52.4V289H255.1v8.8h52.4v177.1H317.1z M272,323.8h-45.1v-64.2h170.9v64.2h-45.1v180.4H272
			V323.8z"/>
		<path class="st0" d="M529,428.3l-16.5-42.9L496,428.3H529z M483.2,259.7h58.7l92.8,244.6h-77l-8.1-22h-74.1l-8.1,22h-77
			L483.2,259.7z M445.1,474.9l7-18.3h121l7,18.3h10.3L519.5,289h-13.9l-70.8,185.9H445.1z M512.5,297.8l57.2,150H455.3L512.5,297.8z
			"/>
		<path class="st0" d="M718.3,379.9h3.3c10.3,0,17.7-2.4,22.2-7.2c4.5-4.8,6.8-11.4,6.8-20c0-8.6-2.3-15.2-6.8-20
			c-4.5-4.8-11.9-7.2-22.2-7.2h-3.3V379.9z M830.5,352.8c0,16.9-2.9,31.2-8.8,43.1c-5.9,11.9-13.9,21.5-24,28.8
			c-10.1,7.3-22,12.7-35.6,16.1c-13.6,3.4-28.2,5.1-43.8,5.1v58.3h-78.1V259.7h78.1c15.6,0,30.3,1.7,43.8,5.1
			c13.6,3.4,25.4,8.8,35.6,16.1c10.1,7.3,18.2,16.9,24,28.8C827.6,321.6,830.5,335.9,830.5,352.8z M794.9,352.8
			c0-11-1.9-20.5-5.7-28.6c-3.8-8.1-9.1-14.7-16-19.8c-6.8-5.1-15-9-24.4-11.6c-9.4-2.6-19.6-3.9-30.6-3.9h-41.4v185.9h9.5v-58.3
			h31.9c11,0,21.2-1.3,30.6-3.9c9.4-2.6,17.5-6.4,24.4-11.6c6.8-5.1,12.2-11.7,16-19.8C793,373.3,794.9,363.8,794.9,352.8z
			 M784.6,352.8c0,10.5-1.8,19.3-5.5,26.4c-3.7,7.1-8.6,12.7-14.7,16.9c-6.1,4.2-13.1,7.2-21.1,9c-7.9,1.8-16.3,2.8-25.1,2.8h-31.9
			v-110h31.9c8.8,0,17.2,0.9,25.1,2.7c7.9,1.8,15,4.8,21.1,9c6.1,4.2,11,9.8,14.7,16.9C782.8,333.5,784.6,342.3,784.6,352.8z"/>
		<path class="st0" d="M400.5,915V737.9h52.4v-8.8H338.5v8.8H391V915H400.5z M355.4,763.9h-45.1v-64.2h170.9v64.2h-45.1v180.4h-80.7
			V763.9z"/>
		<path class="st0" d="M565.5,822.2c0,7.1,1.3,13.8,4,20c2.7,6.2,6.4,11.7,11,16.3c4.6,4.6,10.1,8.3,16.3,11c6.2,2.7,12.9,4,20,4
			c7.1,0,13.8-1.3,20-4c6.2-2.7,11.7-6.4,16.3-11c4.6-4.6,8.3-10.1,11-16.3c2.7-6.2,4-12.9,4-20c0-7.1-1.3-13.8-4-20
			c-2.7-6.2-6.4-11.7-11-16.3c-4.6-4.6-10.1-8.3-16.3-11c-6.2-2.7-12.9-4-20-4c-7.1,0-13.8,1.3-20,4c-6.2,2.7-11.7,6.4-16.3,11
			c-4.6,4.6-8.3,10.1-11,16.3C566.9,808.5,565.5,815.1,565.5,822.2z M488.5,822.2c0-17.6,3.4-34.2,10.1-49.9
			c6.7-15.6,15.9-29.3,27.5-40.9c11.6-11.6,25.2-20.8,40.9-27.5c15.6-6.7,32.3-10.1,49.9-10.1s34.2,3.4,49.9,10.1
			c15.6,6.7,29.3,15.9,40.9,27.5c11.6,11.6,20.8,25.2,27.5,40.9c6.7,15.7,10.1,32.3,10.1,49.9c0,17.6-3.4,34.2-10.1,49.9
			c-6.7,15.6-15.9,29.3-27.5,40.9c-11.6,11.6-25.2,20.8-40.9,27.5c-15.7,6.7-32.3,10.1-49.9,10.1s-34.2-3.4-49.9-10.1
			c-15.6-6.7-29.3-15.9-40.9-27.5c-11.6-11.6-20.8-25.2-27.5-40.9C491.9,856.5,488.5,839.8,488.5,822.2z M523,822.2
			c0,13,2.4,25.1,7.3,36.5c4.9,11.4,11.6,21.3,20.2,29.9c8.6,8.6,18.5,15.3,29.9,20.2c11.4,4.9,23.5,7.3,36.5,7.3
			c13,0,25.1-2.4,36.5-7.3c11.4-4.9,21.3-11.6,29.9-20.2c8.6-8.6,15.3-18.5,20.2-29.9c4.9-11.4,7.3-23.5,7.3-36.5
			c0-13-2.4-25.1-7.3-36.5c-4.9-11.4-11.6-21.3-20.2-29.9c-8.6-8.6-18.5-15.3-29.9-20.2c-11.4-4.9-23.5-7.3-36.5-7.3
			c-13,0-25.1,2.4-36.5,7.3c-11.4,4.9-21.3,11.6-29.9,20.2c-8.6,8.6-15.3,18.5-20.2,29.9C525.4,797.1,523,809.3,523,822.2z
			 M616.9,906.6c-11.7,0-22.7-2.2-32.8-6.6c-10.1-4.4-19.1-10.5-26.8-18.2c-7.7-7.7-13.8-16.6-18.2-26.8
			c-4.4-10.1-6.6-21.1-6.6-32.8c0-11.7,2.2-22.7,6.6-32.8c4.4-10.1,10.5-19.1,18.2-26.8c7.7-7.7,16.6-13.8,26.8-18.2
			c10.1-4.4,21.1-6.6,32.8-6.6c11.7,0,22.7,2.2,32.8,6.6c10.1,4.4,19.1,10.5,26.8,18.2c7.7,7.7,13.8,16.6,18.2,26.8
			c4.4,10.1,6.6,21.1,6.6,32.8c0,11.7-2.2,22.7-6.6,32.8c-4.4,10.1-10.5,19.1-18.2,26.8c-7.7,7.7-16.6,13.8-26.8,18.2
			C639.5,904.4,628.6,906.6,616.9,906.6z"/>
	</g>
	<g>
		<path class="st1" d="M285.3,455.4V251.6h60.3v-10.1H214v10.1h60.3v203.8H285.3z M233.4,281.5h-51.9v-73.8h196.6v73.8h-51.9v207.6
			h-92.8V281.5z"/>
		<path class="st1" d="M529.1,401.8l-19-49.4l-19,49.4H529.1z M476.4,207.7h67.5l106.7,281.4H562l-9.3-25.3h-85.2l-9.3,25.3h-88.6
			L476.4,207.7z M432.5,455.4l8-21.1h139.2l8,21.1h11.8l-81.4-213.9h-16l-81.4,213.9H432.5z M510.1,251.6l65.8,172.5H444.3
			L510.1,251.6z"/>
		<path class="st1" d="M746.8,346.1h3.8c11.8,0,20.3-2.7,25.5-8.2c5.2-5.5,7.8-13.1,7.8-23c0-9.8-2.6-17.5-7.8-23
			c-5.2-5.5-13.7-8.2-25.5-8.2h-3.8V346.1z M875.9,314.9c0,19.4-3.4,35.9-10.1,49.6c-6.8,13.6-16,24.7-27.6,33.1
			c-11.7,8.4-25.3,14.6-40.9,18.6c-15.6,3.9-32.4,5.9-50.4,5.9v67.1h-89.9V207.7h89.9c18,0,34.8,2,50.4,5.9
			c15.6,3.9,29.2,10.1,40.9,18.6c11.7,8.4,20.9,19.5,27.6,33.1C872.5,278.9,875.9,295.5,875.9,314.9z M834.9,314.9
			c0-12.7-2.2-23.6-6.5-32.9c-4.4-9.3-10.5-16.9-18.4-22.8c-7.9-5.9-17.2-10.3-28.1-13.3c-10.8-3-22.6-4.4-35.2-4.4h-47.7v213.9h11
			v-67.1h36.7c12.7,0,24.4-1.5,35.2-4.4c10.8-3,20.2-7.4,28.1-13.3c7.9-5.9,14-13.5,18.4-22.8C832.8,338.5,834.9,327.5,834.9,314.9z
			 M823.1,314.9c0,12.1-2.1,22.2-6.3,30.4c-4.2,8.2-9.8,14.6-16.9,19.4c-7,4.8-15.1,8.2-24.3,10.3c-9.1,2.1-18.8,3.2-28.9,3.2h-36.7
			V251.6h36.7c10.1,0,19.8,1.1,28.9,3.2c9.1,2.1,17.2,5.6,24.3,10.3c7,4.8,12.7,11.3,16.9,19.4C821,292.7,823.1,302.8,823.1,314.9z"
			/>
		<path class="st1" d="M381.2,961.6V757.8h60.3v-10.1H309.9v10.1h60.3v203.8H381.2z M329.3,787.8h-51.9V714H474v73.8h-51.9v207.6
			h-92.8V787.8z"/>
		<path class="st1" d="M571.1,854.9c0,8.2,1.5,15.8,4.6,23c3.1,7.2,7.3,13.4,12.7,18.8c5.3,5.3,11.6,9.6,18.8,12.7
			c7.2,3.1,14.8,4.6,23,4.6c8.2,0,15.8-1.5,23-4.6c7.2-3.1,13.4-7.3,18.8-12.7c5.3-5.3,9.6-11.6,12.7-18.8c3.1-7.2,4.6-14.8,4.6-23
			c0-8.2-1.5-15.8-4.6-23c-3.1-7.2-7.3-13.4-12.7-18.8c-5.3-5.3-11.6-9.6-18.8-12.7c-7.2-3.1-14.8-4.6-23-4.6
			c-8.2,0-15.8,1.5-23,4.6c-7.2,3.1-13.4,7.3-18.8,12.7c-5.3,5.3-9.6,11.6-12.7,18.8C572.6,839,571.1,846.7,571.1,854.9z
			 M482.5,854.9c0-20.2,3.9-39.4,11.6-57.4c7.7-18,18.3-33.7,31.6-47c13.4-13.4,29-23.9,47-31.6c18-7.7,37.1-11.6,57.4-11.6
			s39.4,3.9,57.4,11.6c18,7.7,33.7,18.3,47,31.6c13.4,13.4,23.9,29,31.6,47c7.7,18,11.6,37.1,11.6,57.4s-3.9,39.4-11.6,57.4
			c-7.7,18-18.3,33.7-31.6,47c-13.4,13.4-29,23.9-47,31.6c-18,7.7-37.1,11.6-57.4,11.6s-39.4-3.9-57.4-11.6
			c-18-7.7-33.7-18.3-47-31.6c-13.4-13.4-23.9-29-31.6-47C486.3,894.2,482.5,875.1,482.5,854.9z M522.1,854.9
			c0,14.9,2.8,28.9,8.4,42c5.6,13.1,13.4,24.5,23.2,34.4c9.8,9.8,21.3,17.6,34.4,23.2c13.1,5.6,27.1,8.4,42,8.4
			c14.9,0,28.9-2.8,42-8.4c13.1-5.6,24.5-13.4,34.4-23.2c9.8-9.8,17.6-21.3,23.2-34.4c5.6-13.1,8.4-27.1,8.4-42
			c0-14.9-2.8-28.9-8.4-42c-5.6-13.1-13.4-24.5-23.2-34.4c-9.8-9.8-21.3-17.6-34.4-23.2c-13.1-5.6-27.1-8.4-42-8.4
			c-14.9,0-28.9,2.8-42,8.4c-13.1,5.6-24.5,13.4-34.4,23.2c-9.8,9.8-17.6,21.3-23.2,34.4C524.9,826,522.1,840,522.1,854.9z
			 M630.1,951.9c-13.5,0-26.1-2.5-37.8-7.6c-11.7-5.1-21.9-12-30.8-20.9c-8.9-8.9-15.8-19.1-20.9-30.8c-5.1-11.7-7.6-24.3-7.6-37.8
			c0-13.5,2.5-26.1,7.6-37.8c5.1-11.7,12-21.9,20.9-30.8s19.1-15.8,30.8-20.9c11.7-5.1,24.3-7.6,37.8-7.6c13.5,0,26.1,2.5,37.8,7.6
			c11.7,5.1,21.9,12,30.8,20.9s15.8,19.1,20.9,30.8c5.1,11.7,7.6,24.3,7.6,37.8c0,13.5-2.5,26.1-7.6,37.8
			c-5.1,11.7-12,21.9-20.9,30.8c-8.9,8.9-19.1,15.8-30.8,20.9C656.2,949.4,643.6,951.9,630.1,951.9z"/>
	</g>
	<g>
		<path class="st2" d="M253.4,435.8V205.4h68.2v-11.4H172.8v11.4H241v230.4H253.4z M194.8,239.3h-58.7v-83.5h222.3v83.5h-58.7v234.7
			H194.8V239.3z"/>
		<path class="st2" d="M529.1,375.2l-21.5-55.8l-21.5,55.8H529.1z M469.5,155.8h76.3l120.7,318.2H566.3l-10.5-28.6h-96.4L449,473.9
			H348.8L469.5,155.8z M419.9,435.8l9.1-23.8h157.4l9.1,23.8h13.4l-92.1-241.8h-18.1l-92.1,241.8H419.9z M507.7,205.4l74.4,195.1
			H433.3L507.7,205.4z"/>
		<path class="st2" d="M775.3,312.2h4.3c13.4,0,23-3.1,28.9-9.3c5.9-6.2,8.8-14.9,8.8-26c0-11.1-2.9-19.8-8.8-26
			c-5.9-6.2-15.5-9.3-28.9-9.3h-4.3V312.2z M921.2,276.9c0,21.9-3.8,40.6-11.4,56c-7.6,15.4-18.1,27.9-31.2,37.4
			c-13.2,9.5-28.6,16.5-46.3,21c-17.6,4.5-36.7,6.7-57,6.7v75.8H673.7V155.8h101.6c20.3,0,39.4,2.2,57,6.7
			c17.6,4.5,33.1,11.4,46.3,21c13.2,9.5,23.6,22,31.2,37.4C917.4,236.3,921.2,255,921.2,276.9z M875,276.9c0-14.3-2.5-26.7-7.4-37.2
			c-4.9-10.5-11.9-19.1-20.7-25.8c-8.9-6.7-19.5-11.7-31.7-15c-12.2-3.3-25.5-5-39.8-5h-53.9v241.8h12.4v-75.8h41.5
			c14.3,0,27.6-1.7,39.8-5c12.2-3.3,22.8-8.3,31.7-15c8.9-6.7,15.8-15.3,20.7-25.8C872.5,303.7,875,291.3,875,276.9z M861.6,276.9
			c0,13.7-2.4,25.1-7.2,34.3c-4.8,9.2-11.1,16.5-19.1,21.9c-8,5.4-17.1,9.3-27.4,11.7c-10.3,2.4-21.2,3.6-32.7,3.6h-41.5V205.4h41.5
			c11.4,0,22.3,1.2,32.7,3.6c10.3,2.4,19.5,6.3,27.4,11.7c7.9,5.4,14.3,12.7,19.1,21.9C859.2,251.8,861.6,263.3,861.6,276.9z"/>
		<path class="st2" d="M362,1008.2V777.8h68.2v-11.4H281.3v11.4h68.2v230.4H362z M303.3,811.7h-58.7v-83.5h222.3v83.5h-58.7v234.7
			H303.3V811.7z"/>
		<path class="st2" d="M576.6,887.5c0,9.2,1.7,17.9,5.2,26c3.5,8.1,8.3,15.2,14.3,21.2c6,6,13.1,10.8,21.2,14.3
			c8.1,3.5,16.8,5.2,26,5.2c9.2,0,17.9-1.7,26-5.2c8.1-3.5,15.2-8.3,21.2-14.3c6-6,10.8-13.1,14.3-21.2c3.5-8.1,5.2-16.8,5.2-26
			c0-9.2-1.8-17.9-5.2-26c-3.5-8.1-8.3-15.2-14.3-21.2c-6-6-13.1-10.8-21.2-14.3c-8.1-3.5-16.8-5.2-26-5.2c-9.2,0-17.9,1.8-26,5.2
			c-8.1,3.5-15.2,8.3-21.2,14.3c-6,6-10.8,13.1-14.3,21.2C578.3,869.6,576.6,878.3,576.6,887.5z M476.4,887.5
			c0-22.9,4.4-44.5,13.1-64.9c8.7-20.3,20.7-38.1,35.8-53.2c15.1-15.1,32.8-27,53.2-35.8c20.3-8.7,42-13.1,64.9-13.1
			c22.9,0,44.5,4.4,64.9,13.1c20.3,8.7,38.1,20.7,53.2,35.8c15.1,15.1,27,32.8,35.8,53.2c8.7,20.4,13.1,42,13.1,64.9
			c0,22.9-4.4,44.5-13.1,64.9c-8.7,20.4-20.7,38.1-35.8,53.2c-15.1,15.1-32.8,27-53.2,35.8c-20.4,8.7-42,13.1-64.9,13.1
			c-22.9,0-44.5-4.4-64.9-13.1c-20.4-8.7-38.1-20.7-53.2-35.8c-15.1-15.1-27-32.8-35.8-53.2C480.8,932,476.4,910.4,476.4,887.5z
			 M521.3,887.5c0,16.9,3.2,32.7,9.5,47.5c6.4,14.8,15.1,27.7,26.2,38.9c11.1,11.1,24.1,19.9,38.9,26.2c14.8,6.4,30.6,9.5,47.5,9.5
			c16.9,0,32.7-3.2,47.5-9.5c14.8-6.4,27.7-15.1,38.9-26.2c11.1-11.1,19.9-24.1,26.2-38.9c6.4-14.8,9.5-30.6,9.5-47.5
			c0-16.9-3.2-32.7-9.5-47.5c-6.4-14.8-15.1-27.7-26.2-38.9c-11.1-11.1-24.1-19.9-38.9-26.2c-14.8-6.4-30.6-9.5-47.5-9.5
			c-16.9,0-32.7,3.2-47.5,9.5c-14.8,6.4-27.7,15.1-38.9,26.2c-11.1,11.1-19.9,24.1-26.2,38.9C524.4,854.8,521.3,870.6,521.3,887.5z
			 M643.4,997.2c-15.3,0-29.5-2.9-42.7-8.6c-13.2-5.7-24.8-13.6-34.8-23.6s-17.9-21.6-23.6-34.8c-5.7-13.2-8.6-27.4-8.6-42.7
			c0-15.3,2.9-29.5,8.6-42.7c5.7-13.2,13.6-24.8,23.6-34.8s21.6-17.9,34.8-23.6c13.2-5.7,27.4-8.6,42.7-8.6
			c15.3,0,29.5,2.9,42.7,8.6c13.2,5.7,24.8,13.6,34.8,23.6s17.9,21.6,23.6,34.8c5.7,13.2,8.6,27.4,8.6,42.7
			c0,15.3-2.9,29.5-8.6,42.7c-5.7,13.2-13.6,24.8-23.6,34.8s-21.6,17.9-34.8,23.6C672.9,994.3,658.6,997.2,643.4,997.2z"/>
	</g>
	<g>
		<path class="st3" d="M221.6,416.2v-257h76.1v-12.8h-166v12.8h76.1v257H221.6z M156.2,197H90.7v-93.1h248V197h-65.4v261.8H156.2
			V197z"/>
		<path class="st3" d="M529.2,348.6l-23.9-62.3l-23.9,62.3H529.2z M462.7,103.9h85.1l134.6,354.9H570.7L559,426.9H451.5l-11.7,31.9
			H328.1L462.7,103.9z M407.3,416.2l10.1-26.6h175.6l10.1,26.6h14.9L515.4,146.4h-20.2L392.4,416.2H407.3z M505.3,159.2l83,217.6
			h-166L505.3,159.2z"/>
		<path class="st3" d="M803.8,278.4h4.8c14.9,0,25.6-3.5,32.2-10.4c6.6-6.9,9.8-16.6,9.8-29c0-12.4-3.3-22.1-9.8-29
			c-6.6-6.9-17.3-10.4-32.2-10.4h-4.8V278.4z M966.6,239c0,24.5-4.3,45.3-12.8,62.5c-8.5,17.2-20.1,31.1-34.9,41.8
			c-14.7,10.6-31.9,18.5-51.6,23.4c-19.7,5-40.9,7.5-63.6,7.5v84.6H690.4V103.9h113.3c22.7,0,43.9,2.5,63.6,7.5
			c19.7,5,36.9,12.8,51.6,23.4c14.7,10.6,26.3,24.6,34.9,41.8C962.3,193.7,966.6,214.5,966.6,239z M915,239c0-16-2.8-29.8-8.2-41.5
			c-5.5-11.7-13.2-21.3-23.1-28.7c-9.9-7.4-21.7-13-35.4-16.8c-13.7-3.7-28.5-5.6-44.4-5.6h-60.1v269.8h13.8v-84.6h46.3
			c16,0,30.8-1.9,44.4-5.6c13.7-3.7,25.4-9.3,35.4-16.8c9.9-7.4,17.6-17,23.1-28.7C912.2,268.8,915,255,915,239z M900.1,239
			c0,15.3-2.7,28-8,38.3c-5.3,10.3-12.4,18.5-21.3,24.5c-8.9,6-19.1,10.4-30.6,13c-11.5,2.7-23.7,4-36.4,4h-46.3V159.2h46.3
			c12.8,0,24.9,1.3,36.4,4c11.5,2.7,21.7,7,30.6,13c8.9,6,16,14.2,21.3,24.5C897.4,211,900.1,223.8,900.1,239z"/>
		<path class="st3" d="M342.7,1054.8v-257h76.1V785h-166v12.8h76.1v257H342.7z M277.2,835.5h-65.5v-93.1h248v93.1h-65.4v261.8H277.2
			V835.5z"/>
		<path class="st3" d="M582.1,920.1c0,10.3,1.9,20,5.9,29c3.9,9,9.2,16.9,16,23.7c6.7,6.7,14.6,12.1,23.7,16c9,3.9,18.7,5.9,29,5.9
			c10.3,0,20-1.9,29-5.9c9-3.9,16.9-9.2,23.7-16c6.7-6.7,12.1-14.6,16-23.7c3.9-9,5.9-18.7,5.9-29c0-10.3-2-20-5.9-29
			c-3.9-9-9.2-16.9-16-23.7c-6.7-6.7-14.6-12.1-23.7-16c-9-3.9-18.7-5.9-29-5.9c-10.3,0-20,2-29,5.9c-9,3.9-16.9,9.2-23.7,16
			c-6.7,6.7-12.1,14.6-16,23.7C584.1,900.2,582.1,909.8,582.1,920.1z M470.4,920.1c0-25.5,4.9-49.7,14.6-72.4
			c9.8-22.7,23.1-42.5,39.9-59.3c16.8-16.8,36.6-30.1,59.3-39.9c22.7-9.8,46.8-14.6,72.4-14.6s49.7,4.9,72.4,14.6
			c22.7,9.8,42.5,23.1,59.3,39.9c16.8,16.9,30.1,36.6,39.9,59.3c9.8,22.7,14.6,46.8,14.6,72.4s-4.9,49.7-14.6,72.4
			c-9.8,22.7-23.1,42.5-39.9,59.3c-16.9,16.9-36.6,30.2-59.3,39.9c-22.7,9.8-46.8,14.6-72.4,14.6s-49.7-4.9-72.4-14.6
			c-22.7-9.8-42.5-23.1-59.3-39.9c-16.9-16.8-30.2-36.6-39.9-59.3C475.3,969.8,470.4,945.7,470.4,920.1z M520.4,920.1
			c0,18.8,3.5,36.4,10.6,52.9c7.1,16.5,16.8,31,29.3,43.4c12.4,12.4,26.9,22.2,43.4,29.3c16.5,7.1,34.1,10.6,52.9,10.6
			c18.8,0,36.5-3.5,52.9-10.6c16.5-7.1,30.9-16.8,43.4-29.3c12.4-12.4,22.2-26.9,29.3-43.4c7.1-16.5,10.6-34.1,10.6-52.9
			c0-18.8-3.6-36.5-10.6-52.9c-7.1-16.5-16.9-30.9-29.3-43.4c-12.4-12.4-26.9-22.2-43.4-29.3c-16.5-7.1-34.1-10.6-52.9-10.6
			c-18.8,0-36.4,3.5-52.9,10.6c-16.5,7.1-31,16.9-43.4,29.3c-12.4,12.4-22.2,26.9-29.3,43.4C524,883.7,520.4,901.3,520.4,920.1z
			 M656.6,1042.5c-17,0-32.9-3.2-47.6-9.6c-14.7-6.4-27.7-15.2-38.8-26.3s-20-24.1-26.3-38.8c-6.4-14.7-9.6-30.6-9.6-47.6
			c0-17,3.2-32.9,9.6-47.6c6.4-14.7,15.2-27.7,26.3-38.8s24.1-20,38.8-26.3c14.7-6.4,30.6-9.6,47.6-9.6c17,0,32.9,3.2,47.6,9.6
			c14.7,6.4,27.7,15.2,38.8,26.3s20,24.1,26.3,38.8c6.4,14.7,9.6,30.6,9.6,47.6c0,17-3.2,32.9-9.6,47.6
			c-6.4,14.7-15.2,27.7-26.3,38.8s-24.1,20-38.8,26.3C689.5,1039.3,673.7,1042.5,656.6,1042.5z"/>
	</g>
	<g>
		<path class="st4" d="M189.8,396.6V113h84V98.9H90.6V113h84v283.6H189.8z M117.6,154.7H45.4V51.9H319v102.8h-72.2v288.9H117.6
			V154.7z"/>
		<path class="st4" d="M529.3,322.1l-26.4-68.7l-26.4,68.7H529.3z M455.8,51.9h94l148.6,391.7H575.1l-12.9-35.2H443.5l-12.9,35.2
			H307.3L455.8,51.9z M394.8,396.6l11.2-29.4h193.8l11.2,29.4h16.4L514,98.9h-22.3L378.3,396.6H394.8z M502.8,113l91.6,240.2H411.2
			L502.8,113z"/>
		<path class="st4" d="M832.3,244.5h5.3c16.4,0,28.3-3.8,35.5-11.5c7.2-7.6,10.9-18.3,10.9-32c0-13.7-3.6-24.4-10.9-32
			c-7.2-7.6-19.1-11.5-35.5-11.5h-5.3V244.5z M1012,201.1c0,27-4.7,50-14.1,69c-9.4,19-22.2,34.4-38.5,46.1
			c-16.3,11.7-35.2,20.4-57,25.8c-21.7,5.5-45.1,8.2-70.2,8.2v93.4H707.2V51.9h125.1c25,0,48.4,2.7,70.2,8.2
			c21.7,5.5,40.7,14.1,57,25.8c16.2,11.7,29.1,27.1,38.5,46.1C1007.3,151.1,1012,174.1,1012,201.1z M955,201.1
			c0-17.6-3-32.9-9.1-45.8c-6.1-12.9-14.6-23.5-25.5-31.7c-11-8.2-24-14.4-39.1-18.5c-15.1-4.1-31.4-6.2-49-6.2h-66.4v297.7h15.3
			v-93.4h51.1c17.6,0,34-2.1,49-6.2c15.1-4.1,28.1-10.3,39.1-18.5c11-8.2,19.5-18.8,25.5-31.7C952,234,955,218.7,955,201.1z
			 M938.6,201.1c0,16.8-2.9,30.9-8.8,42.3c-5.9,11.4-13.7,20.4-23.5,27c-9.8,6.7-21,11.5-33.8,14.4c-12.7,2.9-26.1,4.4-40.2,4.4
			h-51.1V113h51.1c14.1,0,27.5,1.5,40.2,4.4c12.7,2.9,24,7.7,33.8,14.4c9.8,6.7,17.6,15.7,23.5,27
			C935.6,170.2,938.6,184.3,938.6,201.1z"/>
		<path class="st4" d="M323.4,1101.3V817.7h84v-14.1H224.2v14.1h84v283.6H323.4z M251.2,859.4H179V756.6h273.7v102.8h-72.2v288.9
			H251.2V859.4z"/>
		<path class="st4" d="M587.7,952.8c0,11.4,2.1,22,6.5,32c4.3,10,10.2,18.7,17.6,26.1c7.4,7.4,16.1,13.3,26.1,17.6
			c10,4.3,20.6,6.5,32,6.5c11.4,0,22-2.1,32-6.5c10-4.3,18.7-10.2,26.1-17.6c7.4-7.4,13.3-16.1,17.6-26.1c4.3-10,6.5-20.6,6.5-32
			c0-11.4-2.2-22-6.5-32c-4.3-10-10.2-18.7-17.6-26.1c-7.4-7.4-16.1-13.3-26.1-17.6c-10-4.3-20.7-6.5-32-6.5c-11.4,0-22,2.2-32,6.5
			c-10,4.3-18.7,10.2-26.1,17.6c-7.4,7.4-13.3,16.1-17.6,26.1C589.8,930.7,587.7,941.4,587.7,952.8z M464.4,952.8
			c0-28.2,5.4-54.8,16.1-79.9c10.8-25,25.4-46.9,44-65.5c18.6-18.6,40.4-33.3,65.5-44c25-10.8,51.7-16.1,79.9-16.1
			c28.2,0,54.8,5.4,79.9,16.1c25,10.8,46.9,25.5,65.5,44c18.6,18.6,33.3,40.4,44,65.5c10.8,25.1,16.2,51.7,16.2,79.9
			s-5.4,54.8-16.2,79.9c-10.8,25.1-25.5,46.9-44,65.5c-18.6,18.6-40.4,33.3-65.5,44c-25.1,10.8-51.7,16.1-79.9,16.1
			c-28.2,0-54.8-5.4-79.9-16.1c-25.1-10.8-46.9-25.4-65.5-44c-18.6-18.6-33.3-40.4-44-65.5C469.7,1007.6,464.4,981,464.4,952.8z
			 M519.6,952.8c0,20.8,3.9,40.2,11.7,58.4c7.8,18.2,18.6,34.2,32.3,47.9c13.7,13.7,29.7,24.5,47.9,32.3
			c18.2,7.8,37.7,11.7,58.4,11.7c20.7,0,40.2-3.9,58.4-11.7c18.2-7.8,34.2-18.6,47.9-32.3c13.7-13.7,24.5-29.7,32.3-47.9
			c7.8-18.2,11.7-37.7,11.7-58.4c0-20.7-3.9-40.2-11.7-58.4c-7.8-18.2-18.6-34.2-32.3-47.9c-13.7-13.7-29.7-24.5-47.9-32.3
			c-18.2-7.8-37.7-11.7-58.4-11.7c-20.8,0-40.2,3.9-58.4,11.7c-18.2,7.8-34.2,18.6-47.9,32.3c-13.7,13.7-24.5,29.7-32.3,47.9
			C523.5,912.5,519.6,932,519.6,952.8z M669.9,1087.8c-18.8,0-36.3-3.5-52.6-10.6c-16.3-7-30.5-16.7-42.9-29.1
			c-12.3-12.3-22-26.6-29.1-42.9c-7-16.2-10.6-33.8-10.6-52.6c0-18.8,3.5-36.3,10.6-52.6c7-16.2,16.7-30.5,29.1-42.9
			s26.6-22,42.9-29.1c16.2-7,33.8-10.6,52.6-10.6c18.8,0,36.3,3.5,52.6,10.6c16.2,7,30.5,16.7,42.9,29.1
			c12.3,12.3,22,26.6,29.1,42.9c7,16.2,10.6,33.8,10.6,52.6c0,18.8-3.5,36.3-10.6,52.6c-7,16.3-16.7,30.5-29.1,42.9
			c-12.3,12.3-26.6,22-42.9,29.1C706.2,1084.3,688.7,1087.8,669.9,1087.8z"/>
	</g>
	<g>
		<path class="st5" d="M158,377.1V66.8h91.9V51.4H49.5v15.4h91.9v310.3H158z M79,112.4H0V0h299.3v112.4h-79v316H79V112.4z"/>
		<path class="st5" d="M529.3,295.5l-28.9-75.2l-28.9,75.2H529.3z M449,0h102.8l162.5,428.5H579.4l-14.1-38.5H435.5l-14.1,38.5
			H286.5L449,0z M382.2,377.1l12.2-32.1h212l12.2,32.1h18l-124-325.7h-24.4l-124,325.7H382.2z M500.4,66.8l100.2,262.7H400.2
			L500.4,66.8z"/>
		<path class="st5" d="M860.8,210.7h5.8c18,0,30.9-4.2,38.9-12.5c7.9-8.4,11.9-20,11.9-35c0-15-4-26.7-11.9-35
			c-7.9-8.4-20.9-12.5-38.9-12.5h-5.8V210.7z M1057.3,163.2c0,29.5-5.1,54.7-15.4,75.5c-10.3,20.8-24.3,37.6-42.1,50.4
			c-17.8,12.8-38.5,22.3-62.3,28.3c-23.8,6-49.4,9-76.8,9v102.1H723.9V0h136.8c27.4,0,53,3,76.8,9c23.8,6,44.5,15.4,62.3,28.3
			c17.8,12.8,31.8,29.7,42.1,50.4C1052.2,108.5,1057.3,133.6,1057.3,163.2z M995,163.2c0-19.3-3.3-36-10-50.1
			c-6.6-14.1-16-25.7-27.9-34.7c-12-9-26.2-15.7-42.7-20.2c-16.5-4.5-34.4-6.7-53.6-6.7h-72.6v325.7h16.7V274.9h55.9
			c19.3,0,37.1-2.2,53.6-6.7c16.5-4.5,30.7-11.2,42.7-20.2c12-9,21.3-20.6,27.9-34.7C991.7,199.1,995,182.4,995,163.2z M977,163.2
			c0,18.4-3.2,33.8-9.6,46.3c-6.4,12.4-15,22.3-25.7,29.5c-10.7,7.3-23,12.5-36.9,15.7c-13.9,3.2-28.6,4.8-44,4.8h-55.9V66.8h55.9
			c15.4,0,30.1,1.6,44,4.8c13.9,3.2,26.2,8.5,36.9,15.7c10.7,7.3,19.3,17.1,25.7,29.5C973.8,129.3,977,144.8,977,163.2z"/>
		<path class="st5" d="M304.2,1147.9V837.7H396v-15.4H195.6v15.4h91.9v310.3H304.2z M225.1,883.3h-79V770.9h299.3v112.4h-79v316
			H225.1V883.3z"/>
		<path class="st5" d="M593.2,985.4c0,12.4,2.3,24.1,7.1,35c4.7,10.9,11.1,20.5,19.3,28.6c8.1,8.1,17.7,14.6,28.6,19.3
			c10.9,4.7,22.6,7.1,35,7.1c12.4,0,24.1-2.4,35-7.1c10.9-4.7,20.4-11.1,28.6-19.3c8.1-8.1,14.6-17.7,19.3-28.6
			c4.7-10.9,7.1-22.6,7.1-35c0-12.4-2.4-24.1-7.1-35c-4.7-10.9-11.1-20.4-19.3-28.6c-8.1-8.1-17.7-14.6-28.6-19.3
			c-10.9-4.7-22.6-7.1-35-7.1c-12.4,0-24.1,2.4-35,7.1c-10.9,4.7-20.5,11.1-28.6,19.3c-8.1,8.1-14.6,17.7-19.3,28.6
			C595.6,961.3,593.2,973,593.2,985.4z M458.3,985.4c0-30.8,5.9-60,17.7-87.4c11.8-27.4,27.8-51.3,48.2-71.6
			c20.3-20.3,44.2-36.4,71.6-48.2c27.4-11.8,56.5-17.7,87.4-17.7s60,5.9,87.4,17.7c27.4,11.8,51.3,27.8,71.6,48.2
			c20.3,20.3,36.4,44.2,48.2,71.6c11.8,27.4,17.7,56.5,17.7,87.4c0,30.8-5.9,60-17.7,87.4c-11.8,27.4-27.8,51.3-48.2,71.6
			c-20.3,20.3-44.2,36.4-71.6,48.2c-27.4,11.8-56.5,17.7-87.4,17.7s-60-5.9-87.4-17.7c-27.4-11.8-51.3-27.8-71.6-48.2
			c-20.3-20.3-36.4-44.2-48.2-71.6C464.2,1045.4,458.3,1016.2,458.3,985.4z M518.7,985.4c0,22.7,4.3,44,12.8,63.9
			c8.6,19.9,20.3,37.4,35.3,52.4c15,15,32.4,26.8,52.4,35.3c19.9,8.6,41.2,12.8,63.9,12.8c22.7,0,44-4.3,63.9-12.8
			c19.9-8.6,37.4-20.3,52.4-35.3c15-15,26.8-32.4,35.3-52.4c8.6-19.9,12.8-41.2,12.8-63.9c0-22.7-4.3-44-12.8-63.9
			c-8.6-19.9-20.3-37.4-35.3-52.4c-15-15-32.4-26.8-52.4-35.3c-19.9-8.6-41.2-12.8-63.9-12.8c-22.7,0-44,4.3-63.9,12.8
			c-19.9,8.6-37.4,20.3-52.4,35.3c-15,15-26.8,32.4-35.3,52.4C523,941.4,518.7,962.7,518.7,985.4z M683.2,1133.1
			c-20.6,0-39.7-3.9-57.5-11.6c-17.8-7.7-33.4-18.3-46.9-31.8c-13.5-13.5-24.1-29.1-31.8-46.9c-7.7-17.8-11.6-36.9-11.6-57.5
			c0-20.6,3.9-39.7,11.6-57.5c7.7-17.8,18.3-33.4,31.8-46.9c13.5-13.5,29.1-24.1,46.9-31.8c17.8-7.7,36.9-11.6,57.5-11.6
			c20.6,0,39.7,3.9,57.5,11.6c17.8,7.7,33.4,18.3,46.9,31.8c13.5,13.5,24.1,29.1,31.8,46.9c7.7,17.8,11.6,36.9,11.6,57.5
			c0,20.6-3.9,39.7-11.6,57.5c-7.7,17.8-18.3,33.4-31.8,46.9c-13.5,13.5-29.1,24.1-46.9,31.8
			C722.9,1129.3,703.7,1133.1,683.2,1133.1z"/>
	</g>
</g>
</svg>
